<svg width="114" height="41" viewBox="0 0 114 41" fill="none" xmlns="http://www.w3.org/2000/svg">
<rect x="1.125" y="1.125" width="112.25" height="38.75" rx="19.375" fill="#F8F9FA"/>
<rect x="1.125" y="1.125" width="112.25" height="38.75" rx="19.375" stroke="#0F0F0F" stroke-width="0.25"/>
<rect x="0.5" y="0.5" width="39" height="40" rx="19.5" fill="#F8F9FA"/>
<rect x="0.5" y="0.5" width="39" height="40" rx="19.5" stroke="#0F0F0F"/>
<circle cx="12.25" cy="9.25" r="3" stroke="#1C1C1C" stroke-width="1.5"/>
<path d="M25.612 29.788C24.3 29.788 23.124 29.468 22.084 28.828C21.06 28.172 20.244 27.236 19.636 26.02C19.044 24.804 18.748 23.34 18.748 21.628C18.748 19.932 19.052 18.476 19.66 17.26C20.268 16.044 21.1 15.108 22.156 14.452C23.212 13.796 24.404 13.468 25.732 13.468C26.692 13.468 27.54 13.668 28.276 14.068C29.012 14.452 29.604 14.9 30.052 15.412L28.972 16.708C28.556 16.26 28.084 15.9 27.556 15.628C27.028 15.356 26.428 15.22 25.756 15.22C24.764 15.22 23.892 15.484 23.14 16.012C22.404 16.524 21.828 17.252 21.412 18.196C21.012 19.14 20.812 20.268 20.812 21.58C20.812 22.892 21.012 24.036 21.412 25.012C21.812 25.972 22.372 26.716 23.092 27.244C23.828 27.772 24.692 28.036 25.684 28.036C26.436 28.036 27.108 27.876 27.7 27.556C28.292 27.236 28.836 26.804 29.332 26.26L30.436 27.508C29.812 28.228 29.108 28.788 28.324 29.188C27.54 29.588 26.636 29.788 25.612 29.788Z" fill="black"/>
<rect x="77.25" y="0.75" width="36.5" height="39.5" rx="18.25" fill="#FCD34D"/>
<rect x="77.25" y="0.75" width="36.5" height="39.5" rx="18.25" stroke="#FF1E9F" stroke-width="0.5"/>
<circle cx="88.75" cy="9.25" r="3" stroke="#003F5C" stroke-width="1.5"/>
<path d="M96.16 29.5V13.756H105.232V15.436H98.152V20.764H104.152V22.444H98.152V29.5H96.16Z" fill="#003F5C"/>
</svg>
