<svg width="114" height="41" viewBox="0 0 114 41" fill="none" xmlns="http://www.w3.org/2000/svg">
<rect x="0.625" y="1.125" width="112.25" height="38.75" rx="19.375" fill="#F8F9FA"/>
<rect x="0.625" y="1.125" width="112.25" height="38.75" rx="19.375" stroke="#0F0F0F" stroke-width="0.25"/>
<rect x="0.25" y="0.75" width="38.5" height="39.5" rx="19.25" fill="#FCD34D"/>
<rect x="0.25" y="0.75" width="38.5" height="39.5" rx="19.25" stroke="#FF1E9F" stroke-width="0.5"/>
<circle cx="11.75" cy="9.25" r="3" stroke="#003F5C" stroke-width="1.5"/>
<path d="M25.112 29.788C23.8 29.788 22.624 29.468 21.584 28.828C20.56 28.172 19.744 27.236 19.136 26.02C18.544 24.804 18.248 23.34 18.248 21.628C18.248 19.932 18.552 18.476 19.16 17.26C19.768 16.044 20.6 15.108 21.656 14.452C22.712 13.796 23.904 13.468 25.232 13.468C26.192 13.468 27.04 13.668 27.776 14.068C28.512 14.452 29.104 14.9 29.552 15.412L28.472 16.708C28.056 16.26 27.584 15.9 27.056 15.628C26.528 15.356 25.928 15.22 25.256 15.22C24.264 15.22 23.392 15.484 22.64 16.012C21.904 16.524 21.328 17.252 20.912 18.196C20.512 19.14 20.312 20.268 20.312 21.58C20.312 22.892 20.512 24.036 20.912 25.012C21.312 25.972 21.872 26.716 22.592 27.244C23.328 27.772 24.192 28.036 25.184 28.036C25.936 28.036 26.608 27.876 27.2 27.556C27.792 27.236 28.336 26.804 28.832 26.26L29.936 27.508C29.312 28.228 28.608 28.788 27.824 29.188C27.04 29.588 26.136 29.788 25.112 29.788Z" fill="#003F5C"/>
<rect x="76.5" y="0.5" width="37" height="40" rx="18.5" fill="#F8F9FA"/>
<rect x="76.5" y="0.5" width="37" height="40" rx="18.5" stroke="#0F0F0F"/>
<circle cx="88.25" cy="9.25" r="3" stroke="#1C1C1C" stroke-width="1.5"/>
<path d="M95.66 29.5V13.756H104.732V15.436H97.652V20.764H103.652V22.444H97.652V29.5H95.66Z" fill="black"/>
</svg>
